<svg version="1.1" id="Layer_1" xmlns="http://www.w3.org/2000/svg" xmlns:xlink="http://www.w3.org/1999/xlink" x="0px" y="0px"
	 width="100%" viewBox="0 0 1024 1024" enable-background="new 0 0 1024 1024" xml:space="preserve">
<path fill="#000000" opacity="1.000000" stroke="none" 
	d="
M500.000000,734.227051 
	C430.683289,734.225769 361.866547,734.220276 293.049835,734.226379 
	C283.827179,734.227234 283.818146,734.254211 283.823639,724.796448 
	C283.878235,631.152466 283.950653,537.508423 283.986847,443.864441 
	C284.005463,395.709473 283.960938,347.554535 283.945587,299.399567 
	C283.943176,291.759369 284.211365,291.654205 291.741394,291.611877 
	C312.230743,291.496643 332.719055,291.206940 353.208191,291.041656 
	C362.682098,290.965210 363.139069,291.516541 363.136353,300.757904 
	C363.102814,415.396759 363.080597,530.035583 363.067261,644.674438 
	C363.066315,652.883911 363.109039,652.891357 371.482574,652.882019 
	C416.971527,652.831421 462.460510,652.782410 507.949463,652.717468 
	C514.794067,652.707703 514.869202,652.627808 514.884521,645.707581 
	C514.952209,615.215210 514.962891,584.722656 515.080200,554.230530 
	C515.108337,546.905273 515.447693,539.580750 515.684265,532.257202 
	C515.742065,530.469727 515.257751,528.229980 517.199219,527.291199 
	C519.546143,526.156250 520.792236,528.441895 522.116577,529.761780 
	C546.780579,554.343872 571.398438,578.972290 596.035034,603.581909 
	C637.882385,645.383545 679.735596,687.179260 721.589600,728.974243 
	C722.757874,730.141052 724.079529,731.189819 724.730835,734.226501 
	C649.746643,734.226501 575.123291,734.226501 500.000000,734.227051 
z"/>
<path fill="#000000" opacity="1.000000" stroke="none" 
	d="
M416.006531,422.993469 
	C410.868011,417.972076 406.051636,413.123749 401.065643,408.456543 
	C397.771118,405.372681 398.042877,403.088562 401.272827,399.850372 
	C431.985596,369.059296 462.538757,338.109009 493.130554,307.197357 
	C495.240204,305.065674 497.715576,303.145630 499.291595,300.664032 
	C504.159241,292.999573 511.437531,291.990692 519.618103,292.032654 
	C549.113647,292.183960 578.610657,292.055115 608.107117,292.036407 
	C649.768738,292.009979 691.430359,291.985016 733.091980,291.971130 
	C734.922485,291.970520 736.762207,291.991760 738.581116,292.171143 
	C740.893555,292.399200 742.193848,293.692108 742.187256,296.121857 
	C742.183167,297.621460 742.226074,299.121124 742.226379,300.620758 
	C742.240234,372.612122 742.252686,444.603485 742.261902,516.594849 
	C742.262817,523.580566 742.005615,523.863831 734.947815,523.874207 
	C663.634460,523.979004 592.320984,524.052917 521.007812,524.219177 
	C517.510254,524.227356 515.066406,522.880676 512.707581,520.497620 
	C480.588562,488.048584 448.415985,455.652557 416.006531,422.993469 
z"/>
</svg>